# Blender v2.76 (sub 0) OBJ File: 'jet.blend'
# www.blender.org
mtllib jet.mtl
o Cylinder
v -0.414214 1.000000 -2.000000
v -1.000000 1.000000 0.000000
v 0.414213 1.000000 -2.000000
v 1.000000 1.000000 0.000000
v 1.000000 0.414214 -2.000000
v 1.000000 -0.414213 -2.000000
v 1.000000 -1.000000 0.000000
v 0.414214 -1.000000 -2.000000
v -0.414213 -1.000000 -2.000000
v -1.000000 -1.000000 0.000000
v -1.000000 -0.414214 -2.000000
v -1.000000 0.414213 -2.000000
v -0.207107 0.500000 -1.000000
v 0.207107 0.500000 -1.000000
v 0.500000 0.207107 -1.000000
v 0.500000 -0.207107 -1.000000
v 0.207107 -0.500000 -1.000000
v -0.207107 -0.500000 -1.000000
v -0.500000 -0.207107 -1.000000
v -0.500000 0.207107 -1.000000
v -0.000000 0.000000 -0.676312
v -0.902000 0.373525 -2.000000
v 0.902000 0.373525 -2.000000
v -0.902000 -0.373525 -2.000000
v -0.373621 -0.901769 -2.000000
v 0.373621 -0.901769 -2.000000
v 0.902000 -0.373525 -2.000000
v 0.373620 0.901769 -2.000000
v -0.373621 0.901769 -2.000000
vt 0.998547 0.544427
vt 0.998521 0.957003
vt 0.504325 0.797793
vt 0.000000 1.000000
vt 0.000000 0.500000
vt 0.499588 0.500107
vt 0.673652 0.485160
vt 0.768561 0.242993
vt 0.863470 0.485160
vt 0.505830 0.875174
vt 0.505859 0.681037
vt 0.998392 0.681209
vt 0.505165 0.751252
vt 0.997806 0.830041
vt 0.504330 0.696309
vt 1.000466 0.344362
vt 1.000466 0.141625
vt 0.863471 0.000826
vt 0.673652 0.000827
vt 0.536657 0.141625
vt 0.536657 0.344362
vt 0.327863 0.013617
vt 0.388496 0.036853
vt 0.387961 0.463180
vt 0.327271 0.486264
vt 0.499577 0.999577
vn 0.000000 0.894400 -0.447200
vn -0.000000 -0.000000 1.000000
vn 0.000000 -0.826400 -0.563000
vn -0.894400 -0.000000 0.447200
vn -0.632500 0.632500 0.447200
vn -0.632500 -0.632500 0.447200
vn 0.000000 -0.894400 0.447200
vn 0.632500 -0.632500 0.447200
vn 0.894400 0.000000 0.447200
vn 0.632500 0.632500 0.447200
vn -0.000000 0.894400 0.447200
vn 0.521900 0.521900 -0.674700
vn 0.894400 0.000000 -0.447200
vn -0.521900 0.521900 -0.674700
vn 0.000000 -0.894400 -0.447200
vn 0.521900 -0.521900 -0.674700
vn -0.521900 -0.521900 -0.674700
vn -0.894400 -0.000000 -0.447200
vn 0.584300 -0.584400 -0.563100
vn 0.826400 0.000000 -0.563100
vn 0.584300 0.584400 -0.563100
vn 0.000000 0.826400 -0.563000
vn -0.584300 0.584400 -0.563100
vn -0.826400 -0.000000 -0.563100
vn -0.584300 -0.584400 -0.563100
vn 0.000000 -0.000000 -1.000000
usemtl None
s off
f 2/1/1 4/2/1 14/3/1
f 2/4/2 10/5/2 7/6/2
f 28/7/3 21/8/3 29/9/3
f 19/10/4 20/11/4 12/1/4
f 20/10/5 13/11/5 1/1/5
f 18/10/6 19/11/6 11/1/6
f 17/10/7 18/11/7 9/1/7
f 6/2/8 16/10/8 17/11/8
f 15/10/9 16/11/9 6/1/9
f 14/10/10 15/11/10 5/1/10
f 13/10/11 14/11/11 3/1/11
f 14/12/12 4/13/12 15/14/12
f 4/2/13 7/1/13 16/15/13
f 20/14/14 2/13/14 13/12/14
f 7/1/15 10/2/15 18/3/15
f 16/12/16 7/13/16 17/14/16
f 18/14/17 10/13/17 19/12/17
f 10/1/18 2/2/18 20/3/18
f 22/16/19 29/9/19 21/8/19
f 24/17/20 22/16/20 21/8/20
f 25/18/21 24/17/21 21/8/21
f 26/19/22 25/18/22 21/8/22
f 26/19/23 21/8/23 27/20/23
f 27/20/24 21/8/24 23/21/24
f 23/21/25 21/8/25 28/7/25
f 5/22/26 23/23/26 28/24/26
f 27/23/26 23/24/26 5/25/26
f 26/23/26 27/24/26 6/25/26
f 9/22/26 25/23/26 26/24/26
f 11/22/26 24/23/26 25/24/26
f 12/22/26 22/23/26 24/24/26
f 12/25/26 1/22/26 29/23/26
f 28/23/26 29/24/26 1/25/26
f 13/15/1 2/1/1 14/3/1
f 4/26/2 2/4/2 7/6/2
f 11/2/4 19/10/4 12/1/4
f 12/2/5 20/10/5 1/1/5
f 9/2/6 18/10/6 11/1/6
f 8/2/7 17/10/7 9/1/7
f 8/1/8 6/2/8 17/11/8
f 5/2/9 15/10/9 6/1/9
f 3/2/10 14/10/10 5/1/10
f 1/2/11 13/10/11 3/1/11
f 15/3/13 4/2/13 16/15/13
f 17/15/15 7/1/15 18/3/15
f 19/15/18 10/1/18 20/3/18
f 3/25/26 5/22/26 28/24/26
f 6/22/26 27/23/26 5/25/26
f 8/22/26 26/23/26 6/25/26
f 8/25/26 9/22/26 26/24/26
f 9/25/26 11/22/26 25/24/26
f 11/25/26 12/22/26 24/24/26
f 22/24/26 12/25/26 29/23/26
f 3/22/26 28/23/26 1/25/26
